# xmcd
# 
# Track frame offsets:
#     150
#     30711
#     53863
#     71373
#     86200
#     103108
#     132812
#     145924
# 
# Disc length: 2351
# 
# Revision: 0
# Processed by: cddbd v1.5.2PL0 Copyright (c) Steve Scherf et al.
# Submitted via: fre:ac v1.1beta1pre4
# 
DISCID=6e092d08
DTITLE=Renée Geyer - Blues License
DYEAR=1978
DGENRE=Blues
TTITLE0=The Thrill Is Gone
TTITLE1=That Did It Babe
TTITLE2=Set Me Free
TTITLE3=Bellhop Blues
TTITLE4=Won't Be Long
TTITLE5=Stormy Monday
TTITLE6=Dust My Blues
TTITLE7=Feeling Is Believing
EXTD=
EXTT0=
EXTT1=
EXTT2=
EXTT3=
EXTT4=
EXTT5=
EXTT6=
EXTT7=
PLAYORDER=
